<svg id="Capa_1" enable-background="new 0 0 512 512" height="512" viewBox="0 0 512 512" width="512" xmlns="http://www.w3.org/2000/svg"><g><path d="m414.604 211-36.384-16.205 24.565-13.795c-5.493-10.704-12.001-20.804-19.605-30l-46.172-14.878 13.562-15.122c-26.81-18.838-59.387-30-94.57-30l-15 30v270l15 30c35.184 0 67.76-11.162 94.57-30l-13.621-15.068 46.231-14.932c7.604-9.196 14.112-19.296 19.605-30l-23.424-16.691 35.243-13.309c2.752-9.683 4.7-19.688 5.636-30l-30-15 30-15c-.936-10.312-2.884-20.317-5.636-30z" fill="#3b4a51"/><g fill="#293939"><path d="m226 391h124.57c12.149-8.538 23.165-18.58 32.609-30h-157.179z"/><path d="m226 331h176.785c4.878-9.51 8.846-19.537 11.819-30h-188.604z"/><path d="m226 271h194.24c.449-4.948.76-9.937.76-15s-.311-10.052-.76-15h-194.24z"/><path d="m402.785 181h-176.785v30h188.604c-2.974-10.463-6.941-20.49-11.819-30z"/><path d="m350.57 121h-124.57v30h157.18c-9.445-11.42-20.461-21.462-32.61-30z"/></g><path d="m256 0c-8.291 0-15 6.709-15 15v31c0 8.291 6.709 15 15 15s15-6.709 15-15v-31c0-8.291-6.709-15-15-15z" fill="#fed843"/><path d="m271 46v-31c0-8.291-6.709-15-15-15v61c8.291 0 15-6.709 15-15z" fill="#fabe2c"/><path d="m256 451c-8.291 0-15 6.709-15 15v31c0 8.291 6.709 15 15 15s15-6.709 15-15v-31c0-8.291-6.709-15-15-15z" fill="#fed843"/><path d="m271 497v-31c0-8.291-6.709-15-15-15v61c8.291 0 15-6.709 15-15z" fill="#fabe2c"/><g><path d="m96.903 118.114-21.211-21.211c-5.859-5.859-5.859-15.352 0-21.211s15.352-5.859 21.211 0l21.211 21.211c5.859 5.859 5.859 15.352 0 21.211s-15.351 5.86-21.211 0z" fill="#fed843"/></g><g><path d="m415.097 436.308-21.211-21.211c-5.859-5.859-5.859-15.352 0-21.211s15.352-5.859 21.211 0l21.211 21.211c5.859 5.859 5.859 15.352 0 21.211-5.86 5.859-15.352 5.859-21.211 0z" fill="#fabe2c"/></g><g><path d="m46 271h-31c-8.291 0-15-6.709-15-15s6.709-15 15-15h31c8.291 0 15 6.709 15 15s-6.709 15-15 15z" fill="#fed843"/></g><g><path d="m497 271h-31c-8.291 0-15-6.709-15-15s6.709-15 15-15h31c8.291 0 15 6.709 15 15s-6.709 15-15 15z" fill="#fabe2c"/></g><g><path d="m75.692 436.308c-5.859-5.859-5.859-15.352 0-21.211l21.211-21.211c5.859-5.859 15.352-5.859 21.211 0s5.859 15.352 0 21.211l-21.211 21.211c-5.859 5.859-15.351 5.859-21.211 0z" fill="#fed843"/></g><g><path d="m393.886 118.114c-5.859-5.859-5.859-15.352 0-21.211l21.211-21.211c5.859-5.859 15.352-5.859 21.211 0s5.859 15.352 0 21.211l-21.211 21.211c-5.86 5.859-15.352 5.86-21.211 0z" fill="#fabe2c"/></g><path d="m91 256c0 90.981 74.019 165 165 165v-330c-90.981 0-165 74.019-165 165z" fill="#fed843"/></g></svg>