<svg id="Capa_1" enable-background="new 0 0 511.646 511.646" height="512" viewBox="0 0 511.646 511.646" width="512" xmlns="http://www.w3.org/2000/svg"><g><path d="m57.214 195.503c-4.142 0-7.5 3.357-7.5 7.5s3.358 7.5 7.5 7.5h6.422c4.142 0 7.5-3.357 7.5-7.5s-3.358-7.5-7.5-7.5z"/><path d="m89.915 210.503h6.422c4.142 0 7.5-3.357 7.5-7.5s-3.358-7.5-7.5-7.5h-6.422c-4.142 0-7.5 3.357-7.5 7.5s3.358 7.5 7.5 7.5z"/><path d="m129.038 210.503c4.142 0 7.5-3.357 7.5-7.5s-3.358-7.5-7.5-7.5h-6.422c-4.142 0-7.5 3.357-7.5 7.5s3.358 7.5 7.5 7.5z"/><path d="m81.764 274.607c-2.841-3.014-7.587-3.157-10.602-.314l-15.88 14.964c-1.504 1.417-2.356 3.392-2.356 5.458s.853 4.041 2.356 5.458l15.88 14.964c3.035 2.86 7.78 2.68 10.602-.314 2.841-3.015 2.7-7.762-.315-10.602l-10.088-9.506 10.088-9.506c3.015-2.84 3.156-7.588.315-10.602z"/><path d="m124.831 314.822c2.827 2.999 7.572 3.17 10.602.314l15.88-14.964c1.504-1.417 2.356-3.392 2.356-5.458s-.853-4.041-2.356-5.458l-15.88-14.964c-3.014-2.841-7.762-2.699-10.602.314-2.841 3.015-2.7 7.762.315 10.602l10.088 9.506-10.088 9.506c-3.015 2.84-3.156 7.587-.315 10.602z"/><path d="m102.424 313.173 15.764-29.928c1.93-3.665.524-8.2-3.141-10.131-3.664-1.929-8.201-.523-10.131 3.141l-15.764 29.928c-1.93 3.665-.524 8.2 3.141 10.131 3.688 1.941 8.213.503 10.131-3.141z"/><path d="m215.823 302.178h-35.836c-4.142 0-7.5 3.357-7.5 7.5s3.358 7.5 7.5 7.5h35.836c4.142 0 7.5-3.357 7.5-7.5s-3.358-7.5-7.5-7.5z"/><path d="m300.367 302.178h-55.836c-4.142 0-7.5 3.357-7.5 7.5s3.358 7.5 7.5 7.5h55.836c4.143 0 7.5-3.357 7.5-7.5s-3.357-7.5-7.5-7.5z"/><path d="m60.425 356.693h96.131c4.142 0 7.5-3.357 7.5-7.5s-3.358-7.5-7.5-7.5h-96.131c-4.142 0-7.5 3.357-7.5 7.5s3.358 7.5 7.5 7.5z"/><path d="m60.425 393.622h46.131c4.142 0 7.5-3.357 7.5-7.5s-3.358-7.5-7.5-7.5h-46.131c-4.142 0-7.5 3.357-7.5 7.5s3.358 7.5 7.5 7.5z"/><path d="m60.425 430.552h76.131c4.142 0 7.5-3.357 7.5-7.5s-3.358-7.5-7.5-7.5h-76.131c-4.142 0-7.5 3.357-7.5 7.5s3.358 7.5 7.5 7.5z"/><path d="m86.556 452.482h-26.131c-4.142 0-7.5 3.357-7.5 7.5s3.358 7.5 7.5 7.5h26.131c4.142 0 7.5-3.357 7.5-7.5s-3.358-7.5-7.5-7.5z"/><path d="m186.318 341.693c-4.142 0-7.5 3.357-7.5 7.5s3.358 7.5 7.5 7.5h46.131c4.142 0 7.5-3.357 7.5-7.5s-3.358-7.5-7.5-7.5z"/><path d="m259.13 356.693h26.131c4.143 0 7.5-3.357 7.5-7.5s-3.357-7.5-7.5-7.5h-26.131c-4.142 0-7.5 3.357-7.5 7.5s3.358 7.5 7.5 7.5z"/><path d="m394.905 349.193c0-4.143-3.357-7.5-7.5-7.5h-76.132c-4.143 0-7.5 3.357-7.5 7.5s3.357 7.5 7.5 7.5h76.132c4.143 0 7.5-3.358 7.5-7.5z"/><path d="m123.538 386.122c0 4.143 3.358 7.5 7.5 7.5h101.411c4.142 0 7.5-3.357 7.5-7.5s-3.358-7.5-7.5-7.5h-101.411c-4.142 0-7.5 3.358-7.5 7.5z"/><path d="m259.13 393.622h63.127c4.143 0 7.5-3.357 7.5-7.5s-3.357-7.5-7.5-7.5h-63.127c-4.142 0-7.5 3.357-7.5 7.5s3.358 7.5 7.5 7.5z"/><path d="m163.556 415.552c-4.142 0-7.5 3.357-7.5 7.5s3.358 7.5 7.5 7.5h87.347c4.142 0 7.5-3.357 7.5-7.5s-3.358-7.5-7.5-7.5z"/><path d="m269.948 423.052c0 4.143 3.357 7.5 7.5 7.5h71.892c4.143 0 7.5-3.357 7.5-7.5s-3.357-7.5-7.5-7.5h-71.892c-4.142 0-7.5 3.358-7.5 7.5z"/><path d="m111.552 467.482h116.91c4.142 0 7.5-3.357 7.5-7.5s-3.358-7.5-7.5-7.5h-116.91c-4.142 0-7.5 3.357-7.5 7.5s3.358 7.5 7.5 7.5z"/><path d="m254.13 467.482h126.82c4.143 0 7.5-3.357 7.5-7.5s-3.357-7.5-7.5-7.5h-126.82c-4.142 0-7.5 3.357-7.5 7.5s3.357 7.5 7.5 7.5z"/><path d="m473.119 162.921h-132.373v-57.221l38.645-21.266c3.26-1.792 5.284-5.217 5.284-8.937s-2.024-7.145-5.282-8.937l-54.931-30.228c-3.632-1.996-8.19-.673-10.188 2.955-1.996 3.629-.674 8.19 2.955 10.188l47.288 26.021c-12.393 6.82-48.725 26.812-61.778 33.995l-41.767-39.447c-3.012-2.845-7.76-2.711-10.603.303-2.844 3.011-2.708 7.758.303 10.602l38.264 36.139-33.149 18.241c-7.075-3.651-34.474-19.33-108.631-59.848l108.666-59.798 34.773 19.136c3.631 1.996 8.19.673 10.188-2.955 1.996-3.63.674-8.19-2.955-10.188l-37.086-20.405c-3.081-1.694-6.759-1.694-9.837-.001l-118.65 65.292c-3.259 1.792-5.283 5.217-5.283 8.937s2.024 7.145 5.305 8.948c14.622 7.981 27.407 14.984 38.623 21.145v57.33h-69.35c-4.142 0-7.5 3.357-7.5 7.5s3.358 7.5 7.5 7.5h69.35v7.521c0 7.916 4.73 15.01 12.049 18.072 24.181 10.12 48.524 15.18 72.875 15.179 24.345-.001 48.698-5.061 72.873-15.179 7.32-3.062 12.05-10.156 12.05-18.072v-7.521h132.373c3.521 0 6.387 2.864 6.387 6.386v43.779h-447.367v-43.779c0-3.521 2.865-6.386 6.386-6.386h33.037c4.142 0 7.5-3.357 7.5-7.5s-3.358-7.5-7.5-7.5h-33.037c-11.792 0-21.386 9.594-21.386 21.386v305.952c0 11.792 9.594 21.386 21.386 21.386h43.793c4.142 0 7.5-3.357 7.5-7.5s-3.358-7.5-7.5-7.5h-43.793c-3.521 0-6.386-2.864-6.386-6.386v-247.174h447.366v247.174c0 3.521-2.865 6.386-6.387 6.386h-360.813c-4.142 0-7.5 3.357-7.5 7.5s3.358 7.5 7.5 7.5h360.813c11.793 0 21.387-9.594 21.387-21.386v-305.953c0-11.792-9.594-21.386-21.387-21.386zm-147.373 22.522c0 1.851-1.114 3.513-2.84 4.234-44.514 18.631-89.654 18.631-134.168 0-1.725-.722-2.839-2.384-2.839-4.234v-71.599c43.727 24.096 58.002 32.315 63.793 35.21 3.896 1.948 7.259 3.045 11.16.61l33.213-18.276v45.219c0 4.143 3.357 7.5 7.5 7.5s7.5-3.357 7.5-7.5v-53.473l16.681-9.179z"/></g></svg>