<svg id="outline" height="512" viewBox="0 0 512 512" width="512" xmlns="http://www.w3.org/2000/svg"><path d="m488 32h-464a8.00039 8.00039 0 0 0 -8 8v288a8.00039 8.00039 0 0 0 8 8h168v56h-16v16h160v-16h-16v-56h168a8.00039 8.00039 0 0 0 8-8v-288a8.00039 8.00039 0 0 0 -8-8zm-8 48h-144v-32h144zm-448-32h288v272h-288zm272 344h-96v-56h40v24a8 8 0 0 0 16 0v-24h40zm32-72v-224h144v224z"/><path d="m351.84473 430.43066a8 8 0 0 0 -7.84473-6.43066h-288a8 8 0 0 0 -7.84473 6.43066l-6.71386 33.56934h-17.44141v16h352v-16h-17.44141zm-9.60327 33.56934h-22.24146v-24h17.44141zm-214.24146-24h16v24h-16zm-16 24h-16v-24h16zm48-24h80v24h-80zm96 0h16v24h-16zm32 0h16v24h-16zm-225.44141 0h17.44141v24h-22.24146z"/><path d="m105.92578 122.794-48 56a8.00054 8.00054 0 0 0 0 10.4121l48 56 12.14844-10.4121-43.53711-50.794 43.53711-50.79395z"/><path d="m277.65723 178.34277-56-56-11.31446 11.31446 50.34375 50.34277-50.34375 50.34277 11.31446 11.31446 56-56a8.00122 8.00122 0 0 0 0-11.31446z"/><path d="m99.648 176.001h136.704v15.999h-136.704z" transform="matrix(.351 -.936 .936 .351 -63.271 276.703)"/><circle cx="360" cy="64" r="8"/><circle cx="384" cy="64" r="8"/><circle cx="408" cy="64" r="8"/><path d="m352 200h16v16h-16z"/><path d="m384 200h32v16h-32z"/><path d="m432 200h32v16h-32z"/><path d="m352 240h16v16h-16z"/><path d="m384 240h24v16h-24z"/><path d="m424 240h40v16h-40z"/><path d="m352 120h16v16h-16z"/><path d="m384 120h48v16h-48z"/><path d="m448 120h16v16h-16z"/><path d="m384 160h80v16h-80z"/><path d="m352 160h16v16h-16z"/><path d="m384 280h80v16h-80z"/><path d="m352 280h16v16h-16z"/><path d="m469.65723 426.34277a8.00235 8.00235 0 0 0 -5.65723-2.34277h-8v-8h-16v8h-8a8.00039 8.00039 0 0 0 -8 8 8.00917 8.00917 0 0 1 -8 8 24.0275 24.0275 0 0 0 -24 24v8a8.00039 8.00039 0 0 0 8 8h88a8.00039 8.00039 0 0 0 8-8 46.32144 46.32144 0 0 0 -13.65625-32.9707zm-61.65723 37.65723a8.00917 8.00917 0 0 1 8-8 24.04166 24.04166 0 0 0 22.62891-16h22.05761l10.34278 10.34375a30.4427 30.4427 0 0 1 7.9209 13.65625z"/></svg>