<svg id="Layer_5" enable-background="new 0 0 64 64" height="512" viewBox="0 0 64 64" width="512" xmlns="http://www.w3.org/2000/svg"><g><path d="m40.707 27.707 6.707-6.707-6.707-6.707-1.414 1.414 5.293 5.293-5.293 5.293z"/><path d="m34.707 26.293-5.293-5.293 5.293-5.293-1.414-1.414-6.707 6.707 6.707 6.707z"/><path d="m28.938 20h16.125v2h-16.125z" transform="matrix(.124 -.992 .992 .124 11.573 55.11)"/><path d="m57 53h2v2h-2z"/><path d="m45 53h2v2h-2z"/><path d="m53 53h2v2h-2z"/><path d="m49 53h2v2h-2z"/><path d="m57 35h2v2h-2z"/><path d="m45 35h2v2h-2z"/><path d="m49 35h2v2h-2z"/><path d="m53 35h2v2h-2z"/><path d="m61.268 29.291c1.114-1.526 1.732-3.376 1.732-5.291 0-4.963-4.037-9-9-9-.642 0-1.281.07-1.911.208-1.951-4.947-6.693-8.208-12.089-8.208-.77 0-1.558.075-2.35.223-3.025-3.909-7.705-6.223-12.65-6.223-7.352 0-13.766 5.056-15.524 12.124-4.81.741-8.476 4.942-8.476 9.876 0 5.176 3.954 9.446 9 9.949v21.338l4.622 7.396c.517.825 1.405 1.317 2.378 1.317s1.861-.492 2.378-1.317l4.622-7.396v-8.287h11v6c0 1.654 1.346 3 3 3h3v3c0 1.654 1.346 3 3 3h16c1.654 0 3-1.346 3-3v-8c0-1.654-1.346-3-3-3h-16c-1.654 0-3 1.346-3 3v3h-3c-.552 0-1-.448-1-1v-14c0-.552.448-1 1-1h3v3c0 1.654 1.346 3 3 3h16c1.654 0 3-1.346 3-3v-8c0-1.199-.712-2.229-1.732-2.709zm-18.268 20.709c0-.552.448-1 1-1h16c.552 0 1 .448 1 1v8c0 .552-.448 1-1 1h-16c-.552 0-1-.448-1-1zm-40-27c0-4.146 3.238-7.646 7.373-7.968l.755-.059.148-.742c1.305-6.507 7.077-11.231 13.724-11.231 4.519 0 8.785 2.21 11.414 5.913l.391.549.655-.155c.86-.203 1.715-.307 2.54-.307 4.841 0 9.061 3.102 10.501 7.718l.305.976.969-.325c.726-.245 1.475-.369 2.225-.369 3.859 0 7 3.141 7 7 0 1.885-.776 3.684-2.128 5h-14.872c-1.302 0-2.402.839-2.816 2h-17.184v-7c0-3.859-3.141-7-7-7s-7 3.141-7 7v6.931c-3.94-.495-7-3.859-7-7.931zm17.003 27.798-1.998 1.333-.005-23.131h4v23.13zm1.997-23.798h-10v-3c0-2.757 2.243-5 5-5s5 2.243 5 5zm-10 2h4l.004 23.132-2.002-1.333-2.002 1.334zm5.683 31.622c-.297.473-1.068.473-1.365 0l-3.954-6.328 1.64-1.092 3.002 2.001 2.998-2 1.635 1.091zm20.317-25.622c-1.654 0-3 1.346-3 3v6h-11v-11h17v2zm23 5c0 .552-.448 1-1 1h-16c-.552 0-1-.448-1-1v-8c0-.552.448-1 1-1h16c.552 0 1 .448 1 1z"/><path d="m29.364 5.818c-.703-.274-1.438-.483-2.184-.62l-.361 1.967c.621.114 1.231.288 1.816.517z"/><path d="m25 7v-2c-4.53 0-8.627 2.508-10.691 6.545l1.781.91c1.721-3.364 5.135-5.455 8.91-5.455z"/><path d="m57 24h2c0-2.757-2.243-5-5-5v2c1.654 0 3 1.346 3 3z"/></g></svg>