<svg id="Capa_1" enable-background="new 0 0 511.99 511.99" height="512" viewBox="0 0 511.99 511.99" width="512" xmlns="http://www.w3.org/2000/svg"><g><path d="m498.729 430.818c-6.759-6.75-15.271-11.092-24.499-12.625v-250.347c0-25.921-21.089-47.01-47.01-47.01h-31.3c-7.312-18.641-22.863-33.172-42.16-39.071v-17.35c0-5.278-.681-10.502-2.024-15.527-1.07-4.002-5.179-6.377-9.183-5.309-4.001 1.07-6.378 5.181-5.309 9.183 1.006 3.762 1.516 7.683 1.516 11.653v14.63c-1.404-.09-2.816-.151-4.242-.151h-8.591v-14.478c0-18.023-14.663-32.687-32.687-32.687h-74.496c-18.027 0-32.694 14.663-32.694 32.687v14.478h-8.587c-1.427 0-2.839.062-4.243.151v-14.63c0-25.1 20.42-45.52 45.52-45.52h74.5c11.59 0 22.631 4.369 31.09 12.301 3.021 2.834 7.768 2.681 10.601-.34s2.681-7.768-.34-10.601c-11.25-10.55-25.935-16.36-41.351-16.36h-74.5c-33.371 0-60.52 27.149-60.52 60.52v17.35c-19.297 5.899-34.847 20.431-42.159 39.071h-31.291c-25.921 0-47.01 21.089-47.01 47.01v250.352c-21.398 3.586-37.76 22.231-37.76 44.637 0 12.076 4.707 23.44 13.257 32.003 8.549 8.549 19.915 13.257 32.003 13.257h30.81c4.142 0 7.5-3.358 7.5-7.5s-3.358-7.5-7.5-7.5h-30.81c-8.083 0-15.681-3.148-21.393-8.859-5.718-5.727-8.867-13.327-8.867-21.401 0-16.691 13.575-30.27 30.26-30.27h126.296c3.53 18.902 20.14 33.258 40.051 33.258h88.774c19.91 0 36.52-14.356 40.051-33.258h126.298c8.074 0 15.674 3.149 21.393 8.859 5.718 5.727 8.867 13.331 8.867 21.411 0 16.686-13.574 30.26-30.26 30.26h-360.66c-4.142 0-7.5 3.358-7.5 7.5s3.358 7.5 7.5 7.5h360.66c24.957 0 45.26-20.304 45.26-45.26 0-12.083-4.706-23.45-13.261-32.017zm-198.348 20.005h-88.774c-11.592 0-21.421-7.7-24.64-18.254h138.054c-3.219 10.554-13.048 18.254-24.64 18.254zm-52.344-177.385h15.907c17.611 0 31.938-14.328 31.938-31.939v-3.094h38.637c20.498 0 38.839-9.403 50.942-24.12v42.42c0 28.091-22.854 50.945-50.944 50.945h-157.054c-28.091 0-50.944-22.854-50.944-50.945v-42.421c12.105 14.718 30.45 24.121 50.951 24.121h38.628v3.094c.001 17.611 14.328 31.939 31.939 31.939zm-16.938-31.939v-29.789c0-9.34 7.599-16.938 16.938-16.938h15.907c9.34 0 16.938 7.599 16.938 16.938v29.789c0 9.34-7.599 16.939-16.938 16.939h-15.907c-9.34 0-16.938-7.599-16.938-16.939zm-53.636 81.151h157.055c36.362 0 65.944-29.583 65.944-65.945v-82.87h8.208c6.926 0 12.56 5.639 12.56 12.57v182.11c0 6.093-4.957 11.05-11.05 11.05h-308.37c-6.093 0-11.05-4.957-11.05-11.05v-182.11c0-6.931 5.634-12.57 12.56-12.57h8.199v82.87c0 36.363 29.583 65.945 65.944 65.945zm23.587-258.234c0-9.752 7.938-17.687 17.694-17.687h74.496c9.752 0 17.687 7.934 17.687 17.687v14.478h-109.877zm-23.587 29.478h157.055c28.091 0 50.944 22.854 50.944 50.945v27.627h-.002c0 28.088-22.852 50.94-50.94 50.94h-38.637v-11.696c0-17.611-14.328-31.938-31.938-31.938h-15.907c-17.611 0-31.938 14.328-31.938 31.938v11.695h-38.63c-28.094 0-50.95-22.852-50.95-50.94h-.001v-27.627c0-28.091 22.854-50.944 50.944-50.944zm-92.693 41.942h27.379c-.404 2.946-.63 5.947-.63 9.002v13.998h-8.199c-15.197 0-27.56 12.368-27.56 27.57v182.11c0 14.364 11.686 26.05 26.05 26.05h308.37c14.364 0 26.05-11.686 26.05-26.05v-182.11c0-15.202-12.363-27.57-27.56-27.57h-8.208v-13.998c0-3.055-.226-6.057-.63-9.002h27.388c17.65 0 32.01 14.36 32.01 32.01v249.719h-406.47v-249.719c0-17.65 14.36-32.01 32.01-32.01z"/><path d="m263.944 252.565c6.102 0 11.065-4.964 11.065-11.066v-14.508c0-6.102-4.964-11.066-11.065-11.066h-15.907c-6.102 0-11.065 4.964-11.065 11.066v14.508c0 6.102 4.964 11.066 11.065 11.066zm-11.972-21.64h8.038v6.64h-8.038z"/></g></svg>